<?xml version="1.0" standalone="no"?>
<!DOCTYPE svg PUBLIC "-//W3C//DTD SVG 20010904//EN"
 "http://www.w3.org/TR/2001/REC-SVG-20010904/DTD/svg10.dtd">
<svg version="1.0" xmlns="http://www.w3.org/2000/svg"
 width="700.000000pt" height="700.000000pt" viewBox="0 0 700.000000 700.000000"
 preserveAspectRatio="xMidYMid meet">
<metadata>
Created by potrace 1.14, written by Peter Selinger 2001-2017
</metadata>
<g transform="translate(0.000000,700.000000) scale(0.100000,-0.100000)"
fill="#000000" stroke="none">
<path d="M3310 6445 c-723 -99 -1350 -591 -1620 -1269 -97 -244 -108 -331
-120 -936 -6 -272 -15 -655 -21 -850 -28 -953 -24 -1185 22 -1397 89 -413 360
-853 702 -1140 254 -213 596 -382 897 -443 334 -68 673 -49 988 56 677 226
1208 824 1347 1519 46 229 46 251 43 1590 l-4 1270 -23 100 c-139 612 -664
1181 -1291 1400 -298 103 -631 140 -920 100z m-123 -391 c-94 -146 -152 -287
-188 -457 -31 -144 -31 -380 0 -524 37 -175 103 -331 194 -462 l45 -64 -47
-37 c-115 -91 -213 -242 -275 -421 -39 -114 -94 -347 -111 -471 -8 -61 -22
-248 -30 -417 -16 -329 -33 -492 -64 -611 -23 -91 -79 -240 -90 -240 -5 0 -25
28 -46 63 -109 178 -207 279 -325 336 -73 35 -78 36 -195 36 -93 0 -131 -4
-168 -19 -27 -10 -50 -16 -52 -14 -3 2 0 121 5 264 5 142 14 522 20 844 12
705 23 919 50 1027 65 254 217 522 414 730 184 195 389 333 642 433 73 29 256
81 262 75 2 -1 -17 -34 -41 -71z m845 40 c248 -69 515 -221 715 -408 190 -177
366 -444 442 -672 62 -184 61 -166 61 -1295 l0 -1029 -57 46 c-96 79 -150 98
-273 98 -103 1 -108 0 -185 -38 -65 -31 -98 -57 -175 -135 -55 -55 -110 -122
-130 -158 -19 -34 -38 -63 -41 -63 -7 0 -42 116 -68 230 -29 123 -47 270 -71
565 -44 559 -99 805 -237 1068 -26 48 -69 115 -95 147 l-47 59 29 57 c70 133
72 214 6 272 -89 78 -202 43 -246 -76 -12 -31 -33 -72 -46 -89 -24 -31 -26
-32 -52 -19 -97 51 -214 252 -264 453 -33 133 -30 341 6 478 54 205 195 435
267 435 48 0 140 -183 189 -378 47 -186 63 -311 56 -437 -8 -135 4 -167 77
-203 92 -47 184 0 212 108 53 199 -54 738 -190 964 l-34 57 32 -6 c18 -3 71
-17 119 -31z m-396 -1785 c89 -53 204 -310 253 -560 26 -138 37 -226 61 -529
23 -287 42 -439 72 -585 41 -202 123 -436 221 -632 l45 -88 -28 -127 c-15 -69
-38 -148 -50 -174 -15 -30 -66 -93 -131 -159 -137 -141 -153 -178 -106 -259
38 -67 117 -93 191 -62 49 21 217 191 275 280 79 121 133 327 166 628 8 80 22
168 30 195 44 144 193 303 284 303 89 0 209 -156 252 -330 62 -250 -85 -633
-341 -889 -208 -208 -473 -325 -766 -338 -150 -7 -248 5 -409 47 -285 75 -511
200 -668 370 -120 130 -180 257 -214 457 l-17 98 77 145 c171 326 215 512 237
1010 18 410 40 575 106 806 33 114 101 257 149 312 87 100 221 135 311 81z
m-1491 -1842 c77 -44 223 -265 276 -420 15 -45 40 -146 54 -225 14 -78 36
-177 50 -220 61 -193 184 -371 355 -514 111 -93 199 -149 345 -219 166 -79
261 -109 555 -177 55 -12 -100 -23 -265 -18 -185 5 -293 23 -457 76 -277 91
-577 287 -770 505 -266 302 -426 655 -453 1007 l-7 87 43 50 c24 28 62 60 84
71 56 28 138 27 190 -3z"/>
</g>
</svg>
