<?xml version="1.0" encoding="UTF-8"?><svg id="Layer_2" xmlns="http://www.w3.org/2000/svg" viewBox="0 0 164.42 164.42"><defs><style>.cls-1{fill:#e1dcd7;}.cls-2{stroke-linecap:round;}.cls-2,.cls-3{fill:none;stroke:#3b3b3b;stroke-miterlimit:10;stroke-width:7px;}</style></defs><g id="Layer_3"><g><circle class="cls-1" cx="82.21" cy="82.21" r="82.21"/><g><path class="cls-3" d="M40.83,52.18c.23-1.93,.63-3.85,1.31-5.84,1.2-3.51,2.83-6.87,4.86-9.98,3.97-6.09,9.42-11.19,15.77-14.73,5.84-3.25,12.41-5.13,19.08-5.43,14.78-.67,29.14,6.59,37.73,18.56,2.56,3.57,4.67,7.49,5.99,11.69,1.36,4.32,1.41,8.45,1.36,12.91-.11,10.45,.02,20.92,.02,31.37v15.4c0,8.75-1.74,16.82-6.25,24.39-3.82,6.4-9.19,11.87-15.59,15.71-5.51,3.31-11.74,5.38-18.15,5.91-14.52,1.18-28.77-5.73-37.71-17.06-5.4-6.84-9.42-15.47-9.7-24.28-.33-10.14,.35-20.42,.53-30.57,.09-4.73,.17-9.46,.26-14.19,.04-2.31,.08-4.63,.13-6.94,.04-2.41,.1-4.67,.37-6.91Z"/><path class="cls-2" d="M92.96,43.87c.79-2.69,.26-6.24-.95-11.85-.91-4.24-4.59-16.32-11.07-11.53-1.63,1.2-2.83,3.04-3.85,4.75-5.64,9.44-4.94,22.33,2.24,30.79,1.79,2.11,4.65,3.96,7.21,2.01,1.46-1.1,2.35-3.01,2.86-4.71"/><path class="cls-2" d="M41.25,105.91c.41-.57,2.86-4.14,8.19-3.48,3.78,.47,6.01,3.91,8.02,7.11,5.27,8.39,3.02,12.48,6.42,19.2,5.2,10.26,17.08,13.78,19.79,14.58,3.29,.97,12.05,3.42,21.92-.53,1.85-.74,9.91-4.18,15.15-12.98,1.6-2.68,6.8-11.41,3.56-20.09-.33-.89-3.16-8.21-8.38-8.53-4.3-.27-7.58,4.38-8.38,5.51-3.57,5.05-2.28,9.24-3.74,15.11-1.03,4.12-.39,6.81-7.48,12.82"/><path class="cls-2" d="M61.85,116.37c1.39-2.77,4.09-6.67,5.44-12.64,2.03-8.91,.69-18.47,2.73-27.49,1.34-5.92,3.23-13.92,9.54-16.43,.66-.26,3.35-1.29,6.22-.36,2.62,.85,4.28,3.41,5.49,5.73,6.28,12.13,3.86,25.4,6.96,38.18,1.61,6.62,4.07,11.65,5.69,14.58"/></g></g></g></svg>