<?xml version="1.0" encoding="UTF-8"?><svg id="Layer_2" xmlns="http://www.w3.org/2000/svg" viewBox="0 0 340.01 125.49"><defs><style>.cls-1{font-family:AcuminPro-Thin, 'Acumin Pro';font-size:17.36px;font-weight:200;}.cls-1,.cls-2{fill:#353535;stroke:#353535;}.cls-3{stroke-linecap:round;}.cls-3,.cls-4{fill:none;stroke:#231f20;stroke-miterlimit:10;stroke-width:3px;}.cls-5{letter-spacing:.01em;}.cls-6{letter-spacing:.05em;}.cls-7{letter-spacing:-.01em;}.cls-2{font-family:InputMonoCompressed-Regular, 'Input Mono Compressed';font-size:41.8px;letter-spacing:.19em;}</style></defs><g id="Layer_3"><g><path class="cls-4" d="M135.6,28.05c.17-1.42,.46-2.84,.96-4.3,.88-2.59,2.09-5.06,3.58-7.36,2.92-4.49,6.94-8.25,11.62-10.85,4.3-2.39,9.14-3.78,14.06-4,10.89-.49,21.47,4.85,27.8,13.68,1.89,2.63,3.44,5.52,4.41,8.62,1,3.18,1.04,6.23,1,9.51-.08,7.7,.01,15.41,.01,23.11v11.35c0,6.45-1.28,12.39-4.61,17.97-2.81,4.72-6.77,8.75-11.49,11.58-4.06,2.44-8.65,3.97-13.38,4.35-10.7,.87-21.2-4.22-27.79-12.57-3.98-5.04-6.94-11.4-7.15-17.89-.24-7.48,.25-15.05,.39-22.53,.06-3.49,.13-6.97,.19-10.46,.03-1.7,.06-3.41,.09-5.11,.03-1.78,.08-3.44,.28-5.09Z"/><path class="cls-3" d="M173.73,23.06c.58-2.09,.47-6.57-.41-10.93-.67-3.29-3.38-12.67-8.16-8.95-1.2,.94-2.08,2.36-2.83,3.69-4.15,7.33-3.64,17.34,1.65,23.91,1.32,1.64,3.42,3.07,5.32,1.56,1.07-.86,1.73-2.34,2.1-3.66"/><path class="cls-3" d="M135.08,68.64c.3-.42,2.94-4.05,6.87-3.56,2.78,.35,4.43,2.88,5.91,5.24,3.89,6.18,2.22,9.2,4.73,14.15,3.83,7.56,12.59,10.15,14.58,10.74,2.43,.72,8.88,2.52,16.16-.39,1.36-.54,7.3-3.08,11.16-9.56,1.18-1.98,5.01-8.41,2.63-14.8-.24-.66-2.33-6.05-6.17-6.29-3.16-.2-5.58,3.22-6.17,4.06-2.63,3.72-1.68,6.81-2.76,11.14-.76,3.04-2.66,7.23-7.88,11.66"/><path class="cls-3" d="M150.46,76.52c1.03-2.04,3.63-6.09,4.63-10.48,1.49-6.57,.51-13.61,2.01-20.25,.99-4.36,2.38-10.26,7.03-12.1,.49-.19,2.47-.95,4.58-.26,1.93,.63,3.16,2.51,4.04,4.22,4.63,8.94,2.84,18.72,5.13,28.14,1.18,4.88,3,8.59,4.19,10.74"/></g><text class="cls-2" transform="translate(219.32 60.96)"><tspan x="0" y="0">YOGA</tspan></text><text class="cls-2" transform="translate(.5 60.96)"><tspan x="0" y="0">YEMA</tspan></text><text class="cls-1" transform="translate(147.15 120.42)"><tspan class="cls-7" x="0" y="0">I</tspan><tspan class="cls-6" x="3.39" y="0">r</tspan><tspan class="cls-5" x="9.52" y="0">v</tspan><tspan x="17.76" y="0">ine</tspan></text></g></svg>