<?xml version="1.0" encoding="UTF-8"?><svg id="Layer_2" xmlns="http://www.w3.org/2000/svg" viewBox="0 0 401.29 166.27"><defs><style>.cls-1{fill:#353535;stroke:#353535;stroke-width:1.5px;}.cls-2{stroke-linecap:round;}.cls-2,.cls-3{fill:none;stroke-miterlimit:10;stroke-width:4px;}.cls-2,.cls-3,.cls-4{stroke:#3b3b3b;}.cls-4{fill:#3b3b3b;}</style></defs><g id="Layer_3"><g><path class="cls-4" d="M14.34,86.94h-4.17v-13.73L.75,50.32H5.19l7.23,18.49,6.91-18.49h4.44l-9.43,22.89v13.73Z"/><path class="cls-4" d="M39.51,86.94V50.32h18.45v3.66h-14.28v11.12h12.54v3.75h-12.54v14.42h14.28v3.66h-18.45Z"/><path class="cls-4" d="M82.89,78.15l-4.76-21.38,.14,30.17h-3.71V50.32h4.99l5.22,22.2,5.17-22.2h4.81v36.62h-3.71l.14-29.98-4.76,21.19h-3.52Z"/><path class="cls-4" d="M127.5,86.94l-2.29-10.89h-8.83l-2.33,10.89h-4.07l8.56-36.62h4.62l8.56,36.62h-4.21Zm-3.07-14.56l-3.62-17.12-3.66,17.12h7.28Z"/></g><g><path class="cls-3" d="M159.49,37.27c.23-1.89,.61-3.77,1.28-5.72,1.17-3.44,2.77-6.73,4.76-9.77,3.88-5.96,9.22-10.96,15.44-14.42,5.72-3.18,12.15-5.03,18.68-5.32,14.47-.65,28.53,6.45,36.94,18.17,2.51,3.49,4.57,7.34,5.86,11.45,1.33,4.23,1.38,8.28,1.33,12.64-.11,10.23,.02,20.48,.02,30.71v15.08c0,8.57-1.7,16.47-6.12,23.88-3.74,6.27-9,11.62-15.26,15.38-5.39,3.24-11.5,5.27-17.77,5.78-14.22,1.16-28.17-5.61-36.92-16.71-5.28-6.7-9.22-15.14-9.5-23.78-.32-9.93,.34-19.99,.52-29.93,.08-4.63,.17-9.26,.25-13.89,.04-2.26,.08-4.53,.12-6.79,.04-2.36,.1-4.57,.37-6.76Z"/><path class="cls-2" d="M210.15,30.64c.78-2.77,.63-8.73-.55-14.52-.89-4.37-4.49-16.84-10.84-11.89-1.6,1.24-2.77,3.14-3.77,4.9-5.52,9.74-4.84,23.04,2.19,31.77,1.76,2.18,4.55,4.08,7.06,2.08,1.42-1.14,2.3-3.11,2.8-4.86"/><path class="cls-2" d="M158.8,91.21c.4-.56,3.9-5.38,9.12-4.73,3.7,.46,5.89,3.83,7.85,6.96,5.16,8.22,2.95,12.22,6.28,18.8,5.09,10.05,16.73,13.49,19.37,14.27,3.22,.95,11.79,3.35,21.47-.52,1.81-.72,9.7-4.09,14.83-12.71,1.56-2.63,6.66-11.17,3.49-19.67-.33-.87-3.1-8.04-8.2-8.35-4.21-.26-7.42,4.28-8.2,5.4-3.5,4.95-2.23,9.05-3.66,14.79-1.01,4.04-3.53,9.61-10.47,15.49"/><path class="cls-2" d="M179.24,101.67c1.36-2.71,4.83-8.09,6.16-13.92,1.98-8.73,.67-18.08,2.67-26.91,1.32-5.8,3.16-13.63,9.34-16.08,.64-.26,3.28-1.26,6.09-.35,2.56,.83,4.19,3.34,5.37,5.61,6.15,11.87,3.78,24.87,6.81,37.38,1.57,6.48,3.99,11.41,5.57,14.27"/></g><g><path class="cls-1" d="M174.43,149.04v16.24h-.46v-16.24h.46Z"/><path class="cls-1" d="M179.25,157.74c0-2.51,0-3.21-.02-3.92h.44c.05,.58,.05,1.89,.05,3.32,.58-2.01,2.49-3.53,4.34-3.6v.46c-2.35,.09-4.34,2.45-4.34,5.1v6.18h-.46v-7.54Z"/><path class="cls-1" d="M187.4,153.82c2.35,5.98,4.01,10.01,4.31,10.98h.02c.37-1.06,3.92-9.67,4.48-10.98h.48l-4.71,11.47h-.55l-4.54-11.47h.51Z"/><path class="cls-1" d="M200.34,150.06v-2.1h.46v2.1h-.46Zm0,3.76h.46v11.47h-.46v-11.47Z"/><path class="cls-1" d="M205.72,156.61c0-1.13-.02-2.54-.02-2.79h.46c.02,.53,.05,1.52,.02,2.88,.42-1.25,1.59-3.16,4.36-3.16,1.91,0,3.88,1.11,3.88,4.43v7.31h-.48v-7.27c0-2.28-1.11-4.04-3.46-4.04-2.75,0-4.29,2.31-4.29,5.01v6.3h-.46v-8.67Z"/><path class="cls-1" d="M218.98,159.42c0,3.58,1.78,5.68,4.27,5.68,2.26,0,3.35-1.22,4.01-2.72h.46c-.69,1.8-2.01,3.14-4.45,3.14-3.53,0-4.75-3.16-4.75-6,0-3.67,1.98-5.98,4.8-5.98,3.55,0,4.66,3.11,4.66,5.31,0,.25,0,.32-.02,.58h-8.97Zm8.56-.42c0-2.77-1.38-5.05-4.25-5.05-2.54,0-4.15,2.1-4.29,5.05h8.54Z"/></g><g><path class="cls-4" d="M283.29,86.94h-4.17v-13.73l-9.43-22.89h4.44l7.23,18.49,6.91-18.49h4.44l-9.43,22.89v13.73Z"/><path class="cls-4" d="M317.42,87.4c-3.08,0-5.44-1.07-7.07-3.2-1.63-2.14-2.45-5.22-2.45-9.25v-12.45c0-4.09,.82-7.22,2.45-9.38,1.63-2.17,3.99-3.25,7.07-3.25s5.43,1.08,7.05,3.25c1.62,2.17,2.43,5.29,2.43,9.38v12.45c0,4.03-.81,7.11-2.43,9.25-1.62,2.14-3.97,3.2-7.05,3.2Zm0-3.66c1.92,0,3.29-.65,4.1-1.95,.81-1.3,1.21-3.53,1.21-6.71v-12.73c0-3.23-.4-5.52-1.21-6.84-.81-1.33-2.17-1.99-4.1-1.99s-3.33,.66-4.14,1.99c-.81,1.33-1.21,3.61-1.21,6.84v12.73c0,3.17,.4,5.41,1.21,6.71,.81,1.3,2.19,1.95,4.14,1.95Z"/><path class="cls-4" d="M353.98,87.4c-3.33,0-5.81-1.12-7.44-3.37-1.63-2.24-2.45-5.23-2.45-8.95v-12.73c0-4.09,.83-7.19,2.49-9.32,1.66-2.12,4.1-3.18,7.3-3.18,3.02,0,5.26,.92,6.73,2.75s2.29,4.75,2.47,8.74l-4.17,.46c-.15-3.02-.62-5.16-1.4-6.41-.78-1.25-2.02-1.88-3.73-1.88-2.01,0-3.44,.66-4.28,1.97-.84,1.31-1.26,3.54-1.26,6.68v13.09c0,3.05,.45,5.23,1.35,6.52,.9,1.3,2.4,1.95,4.51,1.95,1.92,0,3.3-.77,4.12-2.31,.82-1.54,1.24-4.11,1.24-7.71h-5.86v-3.66h10.03v4.53c0,4.18-.82,7.36-2.45,9.54-1.63,2.18-4.04,3.27-7.21,3.27Z"/><path class="cls-4" d="M396.45,86.94l-2.29-10.89h-8.83l-2.33,10.89h-4.07l8.56-36.62h4.62l8.56,36.62h-4.21Zm-3.07-14.56l-3.62-17.12-3.66,17.12h7.28Z"/></g></g></svg>